<?xml version="1.0" encoding="UTF-8" standalone="no"?>
<!-- Created with Inkscape (http://www.inkscape.org/) -->

<svg
   width="512"
   height="512"
   viewBox="0 0 512 512"
   version="1.1"
   id="svg5"
   xmlns="http://www.w3.org/2000/svg"
   xmlns:svg="http://www.w3.org/2000/svg">
  <defs
     id="defs2" />
  <g
     id="layer1">
    <g
       id="g19443"
       transform="translate(1581.1118,-28.725616)">
      <rect
         style="display:inline;fill:#0a0a10;fill-opacity:1;stroke:none;stroke-width:2.69102;stroke-linecap:round;stroke-linejoin:round;stroke-miterlimit:4;stroke-dasharray:none;stroke-dashoffset:42.5"
         id="rect9835"
         width="512"
         height="512"
         x="-1581.1118"
         y="28.725616"
         rx="256"
         ry="256" />
      <g
         id="g19433"
         transform="translate(9.4125972,-15.655731)">
        <path
           id="rect9889"
           style="fill:#ed8796;fill-opacity:1;stroke:#ed8796;stroke-width:5;stroke-linejoin:round;stroke-dasharray:none;stroke-opacity:1"
           d="m -732.01572,973.58108 c -1.11778,3.90258 -2.31128,8.16423 -3.43209,12.14704 l 4.0769,0.091 c 1.64458,-5.8598 3.4658,-12.41 5.08248,-17.96529 z m 28.70273,-28.70274 c -0.64077,1.96718 -1.29652,3.90429 -1.90587,5.93583 -3.29185,10.87083 -6.27491,23.07712 -9.09235,35.15217 l 3.93266,0.27815 c 2.03202,-8.72074 4.24261,-17.96778 6.38331,-25.85399 0.1618,-0.58491 0.31422,-1.1922 0.47785,-1.77329 0.52721,-1.90737 1.07915,-3.74739 1.62552,-5.60023 1.47231,-4.9164 3.04761,-9.66405 4.71911,-14.27887 z m 26.04694,-14.03993 c -0.65522,1.35465 -1.33375,2.68716 -1.95006,4.07691 -0.1254,0.28275 -0.25144,0.56581 -0.37565,0.85074 -0.76123,1.74631 -1.4625,3.56025 -2.16966,5.35992 -1.32137,3.35967 -2.58234,6.83385 -3.76617,10.46159 -0.45228,1.38691 -0.89802,2.7936 -1.32859,4.20673 -1.1247,3.68546 -2.17169,7.43178 -3.15989,11.22532 -0.37393,1.44234 -0.75334,2.89079 -1.11314,4.35589 -0.53743,2.18012 -1.03258,4.46909 -1.54127,6.69266 -0.54898,2.40446 -1.1606,5.35234 -1.69403,7.83699 l 3.88248,0.0501 c 0.32251,-1.47988 0.73967,-3.46874 1.06673,-4.93021 0.78536,-3.49461 1.55728,-7.02349 2.40306,-10.38839 0.0769,-0.3058 0.1545,-0.60938 0.23202,-0.91427 2.57644,-10.13421 5.51261,-19.6321 9.05566,-28.45138 0.31347,-0.779 0.62182,-1.57213 0.94327,-2.33538 0.56432,-1.34162 1.14607,-2.66456 1.74291,-3.97195 0.26744,-0.58533 0.54745,-1.14866 0.82173,-1.7222 -1.03527,-0.98718 -2.04973,-1.76911 -3.0494,-2.40305 z m 15.65165,14.95006 c -0.92271,1.93088 -1.83416,3.8723 -2.67651,5.87506 -0.10934,0.26006 -0.21773,0.52007 -0.32594,0.78168 -0.74535,1.80108 -1.42635,3.67202 -2.11441,5.52842 -1.24669,3.36039 -2.43198,6.8335 -3.53968,10.45606 -0.46259,1.51405 -0.91393,3.05178 -1.35068,4.5962 -1.04376,3.68352 -2.01512,7.42141 -2.92372,11.2046 -0.0988,0.41332 -0.44692,1.89296 -0.44692,1.89296 l 3.96878,-0.12183 c 2.33012,-9.7536 5.11551,-19.49215 8.36223,-28.04042 0.29177,-0.76691 0.57725,-1.54745 0.87698,-2.29948 0.55426,-1.39296 1.12762,-2.76571 1.71666,-4.12249 0.42683,-0.98201 0.86918,-1.93727 1.3134,-2.89057 z m 16.4789,16.4789 c -0.14453,0.2936 -0.28636,0.59539 -0.42951,0.89079 -1.16708,2.40296 -2.27016,4.86093 -3.31457,7.37214 -0.12087,0.2908 -0.24357,0.58134 -0.36322,0.87421 -0.74018,1.81162 -1.41252,3.69238 -2.09646,5.55742 -1.00511,2.73852 -2.15302,6.26416 -3.07086,9.16633 l 4.12851,-0.27656 c 0.91244,-2.90132 1.96762,-6.14458 3.00407,-8.90496 0.29764,-0.79117 0.58917,-1.59408 0.89493,-2.36991 0.55209,-1.40306 1.12336,-2.78622 1.70977,-4.15426 0.52379,-1.22035 1.06563,-2.41268 1.61308,-3.59353 0.23865,-0.51527 0.48959,-1.01869 0.73059,-1.53161 -0.5068,-0.62276 -1.02232,-1.24605 -1.65176,-1.87549 z"
           transform="rotate(45)" />
        <path
           id="rect10674"
           style="fill:#f5a97f;fill-opacity:1;stroke:#f5a97f;stroke-width:5;stroke-linecap:butt;stroke-linejoin:round;stroke-dasharray:none;stroke-opacity:1"
           d="m -815.8355,1057.4009 c -1.188,2.2836 -2.25771,4.5241 -3.48719,6.821 -1.17632,2.2007 -2.92537,5.2883 -4.14286,7.5025 l 4.1542,0.2652 c 1.11056,-2.037 2.91667,-5.2146 3.9979,-7.2442 2.88968,-5.4279 5.5738,-10.7718 8.23807,-16.1047 l -3.09083,3.0909 c -0.26121,0.2612 -0.44626,0.5174 -0.68639,0.7775 -0.32619,0.2951 -0.6619,0.5708 -0.97642,0.8853 z m 49.93942,-49.9395 c -0.96623,2.7151 -1.81075,5.2541 -2.81047,8.0033 -0.22068,0.6033 -0.43611,1.2 -0.65877,1.8051 -1.63559,4.4722 -3.37094,9.023 -5.12377,13.5842 -2.09674,5.4243 -4.28949,10.9032 -6.58769,16.4374 -0.80849,1.9553 -1.55555,3.8802 -2.39339,5.8489 -0.6707,1.5701 -1.38462,3.1569 -2.07436,4.7343 -1.76757,4.055 -3.62569,8.1438 -5.53532,12.25 -0.11579,0.2485 -0.65202,1.3958 -0.76752,1.6441 l 4.02015,0.2475 c 4.57175,-9.8905 9.27979,-20.7931 13.14893,-30.4051 0.93211,-2.3244 1.89794,-4.6594 2.7939,-6.962 4.511,-11.5417 8.52853,-22.6765 12.3868,-33.5862 z m 30.51884,-21.9838 c -0.60306,2.14297 -1.19893,4.20565 -1.80782,6.40125 -3.07613,11.09225 -6.33349,22.65585 -9.88568,34.46045 -0.59228,1.9525 -1.16944,3.8867 -1.78296,5.8571 -1.1199,3.6245 -2.30586,7.2941 -3.50792,10.9739 -2.10825,6.408 -4.33409,12.8811 -6.74375,19.433 -0.46836,1.2796 -0.8841,2.5338 -1.36588,3.8187 -0.55562,1.4754 -1.62565,4.1792 -2.21294,5.665 l 3.8017,0.3769 c 1.89451,-4.91 4.33383,-11.3867 6.03612,-16.2231 1.08234,-3.0858 2.19082,-6.1747 3.20546,-9.2242 7.30369,-21.8491 12.94633,-42.2289 18.36544,-61.5376 z m 21.18006,0 c -1.55378,6.6592 -3.09642,13.28425 -4.67492,20.2727 -2.30857,10.2206 -4.7837,20.83 -7.48953,31.6416 -0.90987,3.6005 -1.83044,7.204 -2.81462,10.8635 -1.10651,4.153 -2.24642,8.3267 -3.46786,12.547 -0.43856,1.5032 -0.86282,2.9969 -1.31754,4.5078 -0.54881,1.837 -1.51586,4.7521 -2.09314,6.6014 l 3.84905,0.4091 c 2.70156,-8.722 5.60491,-18.7874 7.82456,-27.2321 0.086,-0.3291 0.17017,-0.6533 0.2555,-0.9819 5.43354,-20.7901 9.6929,-40.4637 13.92531,-58.6277 z m 19.92466,10e-4 c -0.4185,1.94936 -0.85502,3.85274 -1.25677,5.81429 -3.18594,15.59081 -6.22777,32.44761 -10.06246,51.10781 -0.0824,0.401 -0.17587,0.813 -0.2624,1.2181 l 4.86136,-4.8614 c 1.11213,-5.5052 2.21406,-11.0031 3.23308,-16.3284 2.08541,-10.8983 4.07187,-21.2162 6.15265,-31.2604 0.39767,-1.9346 0.81715,-3.79947 1.22915,-5.69 z m 19.43439,0 c -0.25222,1.0569 -0.50733,2.11197 -0.74854,3.18198 -0.50515,2.23134 -0.96678,4.57273 -1.44183,6.84733 -0.91201,4.37686 -1.80946,8.93499 -2.65303,13.48339 -0.58159,3.144 -1.26437,7.0478 -1.84097,10.2958 l 4.73707,-4.737 c 0.35162,-1.9205 0.69662,-4.0073 1.05375,-5.9069 0.63917,-3.4302 1.31065,-6.7803 1.98598,-10.09556 0.7455,-3.64181 1.47564,-7.31395 2.28704,-10.81928 0.0571,-0.2467 0.11644,-0.4913 0.17402,-0.73749 0.12163,-0.52049 0.2728,-0.99505 0.39637,-1.51227 z m 20.6442,0 c -0.23142,0.73175 -0.49445,1.40392 -0.71953,2.14756 -0.45939,1.51924 -0.9098,3.06016 -1.34378,4.60862 -0.22269,0.79286 -0.40679,1.61248 -0.62286,2.40996 l 5.59747,-5.59746 c 0.36352,-1.20098 0.74497,-2.38046 1.11866,-3.56868 z m -54.70962,71.8266 c -0.67616,2.9836 -1.30097,5.935 -2.02327,8.9479 -0.36713,1.5315 -1.03441,4.1702 -1.40952,5.7056 l 3.96881,-0.2124 c 0.30371,-1.2498 0.84656,-3.3884 1.14612,-4.6383 0.53662,-2.2388 0.98876,-4.4072 1.49846,-6.6222 z m 18.66928,9.8856 c -0.23945,1.2153 -0.69302,3.2766 -0.94001,4.4968 l 3.82399,0.2974 c 0.25595,-1.2674 0.78468,-3.6833 1.03134,-4.9447 0.2428,-1.2411 0.5568,-2.5326 0.79274,-3.7675 0.067,-0.3507 0.11792,-0.6545 0.16987,-0.9599 z m 23.14531,-23.1453 c -1.50132,8.6111 -3.31639,18.7941 -4.96893,27.962 l 3.89281,-0.058 c 0.64168,-3.5731 1.51404,-8.2899 2.11745,-11.7882 1.25018,-7.2481 2.46998,-13.9952 3.69436,-20.8528 z m 24.57196,-24.2515 c -0.46787,1.723 -0.97332,3.4205 -1.41559,5.161 -0.37412,1.4789 -0.75463,2.9625 -1.11452,4.4623 -0.55231,2.2935 -1.05836,4.6898 -1.57994,7.0241 -0.9797,4.3924 -1.9427,8.9446 -2.85467,13.4916 -1.34339,6.714 -2.87153,14.8326 -4.22651,22.0004 l 3.90139,-0.1129 c 1.34308,-7.0757 2.85994,-15.1835 4.23492,-21.9676 0.72184,-3.5885 1.47496,-7.103 2.23595,-10.5776 0.78219,-3.5574 1.54854,-7.1446 2.39201,-10.5845 0.0878,-0.3577 0.17789,-0.7136 0.26655,-1.0703 0.85765,-3.4538 1.83035,-6.7412 2.77732,-10.0638 -1.49589,0.3164 -3.03455,1.0579 -4.61691,2.2387 z m 20.81132,7.1332 c -0.67984,1.7959 -1.39614,3.5185 -2.0426,5.382 -0.45907,1.3241 -0.9049,2.6715 -1.34654,4.0148 -1.12093,3.4177 -2.19478,6.9184 -3.2248,10.503 -0.76533,2.6387 -1.51806,5.3153 -2.24009,8.0157 -1.3981,5.2289 -3.08851,12.1719 -4.38258,17.602 l 4.1408,-0.306 c 1.13078,-4.7638 2.53915,-10.9267 3.71931,-15.444 0.14856,-0.5584 0.28631,-1.1348 0.43642,-1.6904 0.54703,-2.0608 1.12203,-4.0577 1.69042,-6.0657 1.89201,-6.5863 4.00398,-12.876 6.24519,-19.0173 z m 18.76595,18.7659 c -1.68089,3.7072 -3.31986,7.5008 -4.87932,11.4698 -0.44831,1.1414 -0.88541,2.2999 -1.32168,3.4541 -1.2588,3.3365 -2.71538,7.4686 -3.89461,10.9536 l 3.99995,0.2055 c 2.66909,-7.6937 5.85635,-16.0409 9.018,-23.1606 z m 57.63472,18.8019 c -0.48366,0.5885 -0.99607,1.1575 -1.47221,1.7512 -0.11505,0.1435 -0.22084,0.294 -0.3356,0.4378 -1.0881,1.3646 -2.14394,2.7794 -3.20408,4.1874 h 4.78402 c 0.50822,-0.6549 0.9933,-1.3271 1.51089,-1.9749 0.0575,-0.073 0.11224,-0.1505 0.16987,-0.2224 0.16666,-0.2081 0.34624,-0.4056 0.51376,-0.6132 0.51173,-0.6338 1.04753,-1.2342 1.56475,-1.8603 -1.20167,-0.8092 -2.38032,-1.4026 -3.5314,-1.7056 z"
           transform="rotate(45)" />
        <path
           id="rect14308"
           style="fill:#eed49f;fill-opacity:1;stroke:#eed49f;stroke-width:5;stroke-linecap:butt;stroke-linejoin:round;stroke-dasharray:none;stroke-opacity:1"
           d="m -822.99772,1070.8718 c -1.5949,2.9006 -3.14162,5.7853 -4.81578,8.7104 -1.05871,1.8486 -2.17532,3.7083 -3.26484,5.5629 -2.38997,4.0702 -4.87281,8.1615 -7.43015,12.2722 -1.22785,1.9724 -2.43274,3.9485 -3.69298,5.9165 -3.42312,5.3484 -7.01315,10.7292 -10.75575,16.1364 -1.34482,1.9424 -2.7459,3.8786 -4.12663,5.817 -3.14643,4.4184 -6.41065,8.8541 -9.79454,13.3053 -1.22623,1.6127 -2.40613,3.229 -3.65983,4.8392 -0.46612,0.5987 -0.99759,1.2044 -1.46945,1.8037 0.70794,0.9301 1.46009,1.8357 2.31052,2.6862 0.0562,0.056 0.12414,0.092 0.18092,0.1477 6.15016,-7.8048 12.07668,-15.632 17.60171,-23.4988 0.27726,-0.3947 0.56566,-0.7892 0.84107,-1.1836 4.56463,-6.5368 8.93823,-13.0977 13.12015,-19.6802 0.16624,-0.2616 0.32337,-0.5203 0.4889,-0.7817 2.01023,-3.176 4.02962,-6.3506 5.95792,-9.5377 1.95253,-3.227 3.80341,-6.4343 5.661,-9.644 0.10508,-0.1813 0.21711,-0.3642 0.32179,-0.5455 2.38952,-4.1389 4.58653,-8.2273 6.8211,-12.326 z m 31.56707,0 c -0.90235,1.9403 -1.79536,3.8773 -2.73727,5.8281 -2.49975,5.1845 -5.13006,10.4074 -7.89695,15.6613 -1.16362,2.2082 -2.40712,4.4263 -3.61978,6.6416 -2.08105,3.804 -4.25087,7.6242 -6.4924,11.4587 -1.34698,2.3021 -2.66966,4.609 -4.06724,6.904 -3.23397,5.3142 -6.65114,10.6551 -10.23234,16.0162 -4.38415,6.5604 -9.00442,13.0899 -13.86316,19.5918 1.83806,-0.8697 3.62361,-1.8838 5.26049,-3.2109 l 5.85435,-5.8544 c 1.09861,-1.5653 2.27105,-3.1213 3.34218,-4.6901 0.31587,-0.4627 0.64522,-0.927 0.95846,-1.3894 4.65881,-6.8779 9.07454,-13.7887 13.24859,-20.7312 2.07518,-3.4515 4.14732,-6.9029 6.11122,-10.3704 1.94391,-3.4322 3.77021,-6.8469 5.59471,-10.2627 0.0127,-0.025 0.0268,-0.051 0.04,-0.076 3.64052,-6.8186 7.05606,-13.5954 10.26824,-20.3252 0.83421,-1.7477 1.55184,-3.4544 2.35472,-5.1914 z m 29.22202,0 c -0.24666,0.624 -0.48646,1.2454 -0.73058,1.8686 -1.41009,3.6119 -2.89355,7.2464 -4.42357,10.8952 -0.16068,0.3824 -0.32844,0.7667 -0.48889,1.1491 1.52753,-0.7122 3.10454,-1.2669 4.71634,-1.6642 1.68826,-4.1016 3.30065,-8.1837 4.86965,-12.2501 z m 26.47783,0 c -1.10736,3.5474 -2.1864,7.0841 -3.39328,10.6687 -0.68532,2.0258 -1.43186,4.069 -2.16689,6.1085 0.92781,0.7068 1.83209,1.4564 2.68065,2.305 0.14037,0.1404 0.25959,0.2926 0.39636,0.435 2.34263,-6.5671 4.46135,-13.0683 6.45926,-19.5186 z m 23.65908,0 c -0.56768,2.3236 -1.11637,4.6371 -1.73324,6.9868 -0.33777,1.2866 -0.66244,2.5688 -1.01232,3.8601 -1.62922,6.0131 -3.39535,12.081 -5.32816,18.1997 -0.35709,1.1306 -0.75426,2.271 -1.12281,3.4044 -1.73809,5.3442 -3.62113,10.7239 -5.64166,16.1322 -0.58225,1.5586 -1.13104,3.1121 -1.73877,4.6749 -0.53176,1.3674 -1.0914,2.7394 -1.64347,4.1101 -1.19909,2.9772 -2.45036,5.9631 -3.7496,8.9535 -0.59563,1.3709 -1.18317,2.7392 -1.80091,4.1128 -1.15276,2.563 -2.3369,5.1299 -3.56423,7.7005 -0.68877,1.4426 -1.39114,2.8864 -2.1092,4.3313 -0.19485,0.3921 -0.38739,0.7831 -0.58419,1.1753 -0.29441,0.5868 -1.39887,2.6658 -1.69797,3.2516 l 4.27683,0.066 c 0.0949,-0.1889 0.99892,-1.9407 1.0934,-2.1298 0.12961,-0.2594 0.2372,-0.5181 0.36598,-0.7775 1.99164,-4.0113 3.86392,-8.0105 5.65962,-12.0015 0.64911,-1.4425 1.26439,-2.8804 1.8893,-4.32 1.28127,-2.9517 2.51587,-5.8948 3.69988,-8.8319 0.58151,-1.4425 1.17117,-2.8852 1.73048,-4.3241 0.59816,-1.5389 1.13488,-3.0607 1.70838,-4.5948 2.06035,-5.5121 3.98025,-10.9944 5.75077,-16.443 0.35462,-1.0912 0.73607,-2.1852 1.07999,-3.2732 1.95977,-6.2006 3.75062,-12.3495 5.40274,-18.4483 0.34406,-1.27 0.66079,-2.521 0.99299,-3.7855 0.71007,-2.703 1.34453,-5.3629 1.99288,-8.0309 z m 21.06267,0 c -0.92392,4.5642 -1.85653,9.1352 -2.8961,13.7679 -0.87539,3.9014 -1.75824,7.8078 -2.73866,11.7597 -0.32003,1.2898 -0.62764,2.5744 -0.95984,3.8684 -1.55607,6.0605 -3.25276,12.1736 -5.11962,18.3309 -0.34346,1.1329 -0.72902,2.2746 -1.08414,3.4099 -1.67851,5.3661 -3.50512,10.7638 -5.47179,16.1861 -0.57106,1.5744 -1.10684,3.1426 -1.70424,4.7205 -0.51728,1.3663 -1.0628,2.7368 -1.60066,4.1059 -1.1763,2.9941 -2.40672,5.9931 -3.68607,8.9977 -0.0349,0.082 -0.52972,1.2468 -0.56448,1.3287 l 4.10002,0.066 c 1.08744,-2.5798 2.62656,-6.3051 3.63773,-8.8761 0.57059,-1.4507 1.14823,-2.8998 1.69595,-4.3476 0.58101,-1.5356 1.10123,-3.059 1.65728,-4.5906 2.00697,-5.5281 3.8685,-11.0284 5.57952,-16.501 0.35122,-1.1233 0.73055,-2.251 1.07032,-3.3712 1.88362,-6.2116 3.59659,-12.376 5.16796,-18.4953 0.33983,-1.323 0.64825,-2.6269 0.97504,-3.9443 0.98133,-3.9561 1.86389,-7.8534 2.74141,-11.7626 1.11121,-4.9497 2.10506,-9.8046 3.08393,-14.6517 z m 19.15403,0 c -0.60281,3.3442 -1.06925,6.2201 -1.73877,9.7849 -0.34806,1.8534 -0.75136,3.7518 -1.11452,5.6195 -1.1822,6.0795 -2.47127,12.2268 -3.85456,18.4193 -0.86932,3.892 -1.74639,7.786 -2.71932,11.7239 -0.31764,1.2855 -0.62048,2.5667 -0.95018,3.856 -1.5504,6.0624 -3.24197,12.1721 -5.10166,18.3212 -0.34604,1.1441 -0.73318,2.2953 -1.09105,3.4416 -1.47371,4.72 -3.36245,10.2356 -5.06144,14.9939 l 4.26733,-0.7661 c 1.55015,-4.3916 3.07648,-8.7799 4.43737,-13.1408 0.35271,-1.1301 0.73468,-2.2631 1.07585,-3.3906 1.87555,-6.1997 3.57949,-12.3569 5.14448,-18.4745 0.34066,-1.3315 0.65151,-2.6442 0.97918,-3.9706 0.97515,-3.9484 1.85507,-7.8429 2.72761,-11.7487 1.40371,-6.2833 2.70158,-12.4798 3.89323,-18.6127 0.23764,-1.2226 0.54508,-2.4924 0.77616,-3.7095 0.12738,-0.671 0.1994,-1.1747 0.32455,-1.841 0.6684,-3.5597 1.25857,-6.9986 1.88792,-10.503 z m 18.34749,0 c -1.87798,9.9343 -3.82098,20.2076 -6.0408,31.2011 -0.38006,1.8825 -0.81463,3.8075 -1.20981,5.7038 -1.26071,6.0496 -2.62321,12.1598 -4.07691,18.3102 -0.91379,3.8662 -1.8355,7.7364 -2.84915,11.6438 -0.33569,1.294 -0.65764,2.5833 -1.00541,3.8808 -1.30054,4.8526 -2.94913,10.4218 -4.44769,15.3261 l 3.82572,0.4486 c 1.38658,-4.5761 3.08327,-10.272 4.29837,-14.8066 0.34598,-1.2909 0.66465,-2.5654 0.99851,-3.8518 1.02677,-3.9564 1.95792,-7.8629 2.88367,-11.7805 1.46241,-6.1882 2.82378,-12.2988 4.0852,-18.3517 0.26366,-1.2649 0.59659,-2.5715 0.8535,-3.831 0.14624,-0.717 0.23472,-1.2632 0.37841,-1.975 1.43732,-7.122 2.7979,-14.1554 4.08934,-21.0378 0.70811,-3.7736 1.40381,-7.2191 2.09923,-10.8828 z m 18.93858,0 c -2.55349,10.7149 -4.97756,21.7737 -7.47848,33.1995 -0.55963,2.5569 -1.23172,5.2639 -1.81058,7.8541 l 5.18038,-5.1804 c 2.78625,-12.5246 5.4543,-24.406 8.17592,-35.8718 z m 21.7822,0 c -0.0804,0.2375 -0.16855,0.4607 -0.24859,0.6988 -0.86952,2.5666 -1.72692,5.1643 -2.55774,7.7837 -0.0274,0.087 -0.0539,0.1791 -0.0815,0.2666 -0.6012,1.8994 -1.13774,3.9207 -1.72357,5.8447 l 5.67481,-5.6749 c 0.66101,-2.0954 1.3441,-4.1331 2.02464,-6.1789 0.31422,-0.9333 0.66808,-1.8154 0.98885,-2.74 z m -33.02547,49.5265 c -1.2516,5.4499 -2.40628,10.7862 -3.7648,16.3297 -0.82436,3.337 -1.65568,6.6723 -2.53978,10.0445 -0.81945,3.1484 -1.9686,7.2923 -2.84015,10.4618 l 3.83592,0.2567 c 1.01248,-3.6396 2.39471,-8.5142 3.32835,-12.1216 0.33717,-1.3148 0.66652,-2.6185 0.99437,-3.9278 1.51908,-6.0092 2.89261,-11.8976 4.25922,-17.7688 z m 14.55921,14.5592 c -1.88677,7.0145 -4.35617,15.8924 -6.37333,23.0475 l 4.2226,-0.7481 c 1.73195,-6.0907 3.72069,-13.1577 5.33824,-19.1133 z m 26.55932,-18.4221 c -1.31427,3.7018 -2.66929,7.3273 -3.95123,11.0693 -2.91884,8.5203 -5.82162,17.0254 -8.72835,25.8757 -0.29878,0.9097 -1.06528,3.1757 -1.36573,4.0889 l 4.29814,-0.4275 c 5.34026,-16.1013 10.70717,-32.4535 16.05175,-46.9109 z m 54.37679,-45.6622 c -2.00542,2.6633 -3.98233,5.3715 -5.91373,8.1566 -0.5903,0.8508 -1.19614,1.6908 -1.77606,2.5494 -2.72118,4.031 -5.36478,8.2179 -7.95081,12.5387 -0.69444,1.1606 -1.37613,2.3341 -2.05641,3.5066 -2.37396,4.0899 -4.71209,8.2761 -6.99787,12.6326 -3.65417,6.9654 -7.10832,14.1421 -10.46159,21.4383 -0.0805,0.1764 -0.15979,0.3564 -0.2403,0.5331 -3.17778,6.9329 -6.2478,14.1132 -9.2794,21.2975 -0.19317,0.4599 -0.39524,0.9529 -0.58833,1.4142 -0.18397,0.4376 -1.08445,2.5928 -1.26839,3.0303 l 4.14032,-0.022 c 3.20719,-7.6382 7.1214,-16.7799 10.39599,-23.9866 0.11815,-0.2578 0.23234,-0.5214 0.35079,-0.7789 3.14463,-6.8933 6.35772,-13.566 9.6951,-19.984 0.12459,-0.2395 0.25478,-0.475 0.37979,-0.7141 3.09729,-5.9235 6.28212,-11.5265 9.53904,-16.9415 2.44595,-4.0692 4.95462,-8.0816 7.59449,-11.9863 0.48379,-0.7156 0.98373,-1.4039 1.47222,-2.1103 2.4884,-3.5984 5.07031,-7.123 7.74917,-10.5748 z m 29.60457,15.8187 c -1.9523,2.1603 -3.9519,4.2508 -5.84468,6.5021 -0.10338,0.1228 -0.20081,0.2499 -0.30383,0.3729 -2.85494,3.4072 -5.61555,7.0031 -8.36789,10.6052 -2.85337,3.7341 -5.60873,7.543 -8.3016,11.3952 -1.18029,1.688 -2.38572,3.3357 -3.55211,5.0658 -7.70229,11.4273 -15.39143,24.4199 -22.187,36.6854 l 4.12715,0.3706 c 3.01246,-5.4287 6.84799,-12.1929 9.95989,-17.3496 0.0308,-0.051 0.0642,-0.1017 0.0953,-0.1533 3.63932,-6.0251 7.32899,-11.742 11.06926,-17.2951 1.2304,-1.8275 2.52803,-3.601 3.78965,-5.4027 2.61696,-3.7356 5.26211,-7.3939 7.95771,-10.9243 2.7198,-3.5627 5.44604,-7.1205 8.33061,-10.5624 0.0972,-0.1159 0.19134,-0.2392 0.28864,-0.3549 1.79978,-2.1405 3.74892,-4.1775 5.62923,-6.2618 z"
           transform="rotate(45)" />
        <path
           id="rect14310"
           style="fill:#a6da95;fill-opacity:1;stroke:#a6da95;stroke-width:5;stroke-linecap:butt;stroke-linejoin:round;stroke-dasharray:none;stroke-opacity:1"
           d="m -789.63526,1181.2978 c -12.63249,17.656 -27.37146,34.9757 -44.71622,51.9199 -0.004,1.6138 0.149,3.2265 0.44609,4.8186 4.31681,-4.1914 8.5158,-8.3989 12.55529,-12.6327 0.20294,-0.2142 0.41868,-0.4271 0.62148,-0.6408 3.08718,-3.2496 6.06046,-6.518 8.97418,-9.7945 0.51456,-0.5789 1.03256,-1.1585 1.54127,-1.7374 2.89192,-3.2906 5.71266,-6.5921 8.43694,-9.9092 0.18109,-0.2207 0.35395,-0.4408 0.53448,-0.6615 6.13485,-7.5038 11.82209,-15.0803 17.15148,-22.7144 -1.88318,0.2426 -3.7405,0.694 -5.54499,1.352 z m 46.6069,-25.0346 c -1.78056,3.4874 -3.60419,6.9662 -5.52151,10.4271 -0.74511,1.3451 -1.53061,2.692 -2.30086,4.0382 -0.82141,1.4355 -1.69791,2.8604 -2.54531,4.291 0.49054,0.5839 0.99564,1.1586 1.54542,1.7084 0.38962,0.3896 0.83853,0.6733 1.24572,1.033 1.02251,-1.7155 2.07146,-3.4316 3.05216,-5.1458 0.77997,-1.3629 1.57381,-2.7236 2.33125,-4.0908 2.2671,-4.0931 4.44541,-8.1816 6.4924,-12.2597 z m -18.60713,31.9565 c -1.21175,1.8388 -2.39308,3.6837 -3.6474,5.5147 -0.65036,0.9493 -1.25764,1.8982 -1.92244,2.8477 -2.88476,4.1203 -5.90241,8.2154 -9.03495,12.2915 -0.93316,1.2143 -1.9348,2.4281 -2.89334,3.6419 -2.32403,2.9425 -4.69853,5.8759 -7.15945,8.7946 -1.24772,1.4802 -2.5308,2.9588 -3.81866,4.4374 -2.38316,2.7356 -4.8359,5.4606 -7.3459,8.1745 -1.3097,1.4167 -2.60797,2.8323 -3.95676,4.2468 -1.11482,1.1689 -3.29183,3.3267 -4.43472,4.4908 l 4.78001,0.5969 c 0.24117,-0.2508 2.0503,-2.0995 2.28979,-2.3504 1.45127,-1.5206 2.85243,-3.0506 4.26336,-4.5782 2.45826,-2.6614 4.85837,-5.323 7.18431,-7.9909 1.34236,-1.5399 2.68075,-3.0811 3.98438,-4.6279 2.50153,-2.9677 4.9062,-5.9377 7.25337,-8.9107 0.93931,-1.1899 1.9176,-2.3735 2.83534,-3.5673 3.2042,-4.1672 6.27357,-8.337 9.19377,-12.5083 0.62105,-0.8872 1.19366,-1.7846 1.80367,-2.6738 1.06522,-1.5527 2.09656,-3.1044 3.14331,-4.6569 -0.73485,-1.1098 -1.59399,-2.1601 -2.51769,-3.1724 z m 45.26036,-31.9551 c -0.54732,1.2877 -1.08782,2.5745 -1.65728,3.8642 -1.80195,4.0808 -3.6794,8.1681 -5.69138,12.2625 -0.12417,0.2526 -0.24785,0.5042 -0.37289,0.7569 -1.80712,3.6535 -3.74291,7.2796 -5.71348,10.898 1.6831,-0.2439 3.33346,-0.6854 4.95251,-1.2623 1.41465,-2.6552 2.8657,-5.313 4.17635,-7.9633 0.0491,-0.099 0.10561,-0.1962 0.15468,-0.2955 0.0787,-0.1596 0.14401,-0.317 0.22235,-0.4765 2.02518,-4.1221 3.91512,-8.2353 5.72867,-12.3412 0.63294,-1.433 1.23226,-2.863 1.84097,-4.2938 0.16347,-0.3842 0.30907,-0.7664 0.47094,-1.1504 z m 23.1467,0 c -0.17581,0.4924 -0.31922,0.9795 -0.49718,1.4722 1.45994,-0.6206 2.96372,-1.0923 4.49261,-1.4321 0.005,-0.014 0.009,-0.028 0.0138,-0.041 z m 20.28651,0 c -0.15636,0.5117 -0.28543,1.0168 -0.44333,1.5289 1.17836,0.5081 2.32456,1.1119 3.43334,1.8036 0.34617,-1.1159 0.6292,-2.2171 0.96675,-3.3311 z m 18.24805,0 c -0.45228,1.6447 -0.86293,3.273 -1.33826,4.9263 -0.24213,0.8377 -0.47113,1.6715 -0.71815,2.5108 -0.82918,2.8309 -1.79623,5.6948 -2.68894,8.5419 0.9202,2.3666 1.47841,4.8341 1.67523,7.3293 2.57548,-7.8431 4.84039,-15.5987 6.98545,-23.3097 z m 17.54923,0 c -0.62865,2.2299 -1.18278,4.3898 -1.83682,6.6402 -0.76173,2.5976 -1.50704,5.181 -2.30362,7.7975 -0.94313,3.1249 -1.93333,6.2664 -2.93339,9.4134 -2.30151,7.184 -4.71321,14.4062 -7.37767,21.6717 -0.2027,0.5554 -0.37901,1.1056 -0.58419,1.6614 -0.97368,2.6254 -2.02482,5.2579 -3.05492,7.8887 -1.14094,2.9237 -2.32998,5.8521 -3.54935,8.7836 -1.21784,2.9209 -2.43266,5.843 -3.73164,8.7642 -1.88947,4.2549 -4.6542,10.099 -6.73961,14.359 l 4.62346,-0.8387 c 7.59189,-15.7867 14.16736,-32.3704 19.60323,-48.0304 1.17499,-3.3949 2.37092,-6.7846 3.46648,-10.1564 3.09246,-9.4754 5.82818,-18.7641 8.44109,-27.9528 z m -27.74151,43.2399 c -0.13768,0.1433 -0.25647,0.2979 -0.39775,0.4392 l -6.37225,6.3722 c -2.26888,5.5022 -4.65673,11.0117 -7.26994,16.5286 -1.78443,3.7713 -3.61707,7.541 -5.57399,11.2999 -0.0834,0.1604 -0.16332,0.3217 -0.24721,0.482 -1.23509,2.3628 -3.36715,6.1224 -4.6745,8.4627 l 4.87034,-0.9569 c 0.15363,-0.2793 0.57015,-1.032 0.72627,-1.3113 0.79133,-1.4157 1.60539,-2.8308 2.34688,-4.2472 0.0644,-0.123 0.13728,-0.2443 0.20163,-0.3673 0.0919,-0.1762 0.16953,-0.3529 0.26102,-0.529 1.93417,-3.7218 3.74251,-7.4395 5.50494,-11.159 2.86985,-6.0598 5.5284,-12.1246 8.00053,-18.1873 0.55375,-1.3585 1.06589,-2.7105 1.60066,-4.0672 0.36355,-0.9216 0.6673,-1.8372 1.02337,-2.758 z m 46.57651,-43.2399 c -3.45726,10.5084 -6.99217,21.195 -10.77923,32.0367 -0.64529,1.8343 -1.27776,3.6594 -1.93902,5.5021 -1.27783,3.586 -2.61566,7.1928 -3.96229,10.8041 -2.43866,6.4969 -4.97071,13.0214 -7.68288,19.5739 -0.40921,0.993 -0.78069,1.9793 -1.19738,2.9734 -0.93729,2.2275 -1.93483,4.4583 -2.90991,6.6885 -1.13419,2.6024 -3.15991,7.0661 -4.35451,9.673 l 4.43724,-0.6744 c 3.62166,-8.0112 7.52097,-17.1979 10.68683,-25.1626 1.19605,-3.0184 2.41582,-6.0363 3.55349,-9.0391 6.81762,-17.9196 12.70813,-35.4932 18.30744,-52.3756 z m 22.17719,0 c -3.18873,7.5841 -6.37355,15.1394 -9.54732,22.963 -4.69273,11.5681 -9.46552,23.3673 -14.5026,35.2905 -0.32629,0.7681 -0.64768,1.53 -0.97641,2.2994 -1.8063,4.2503 -3.685,8.5305 -5.57675,12.8108 -1.38165,3.1101 -2.85405,6.2365 -4.28822,9.3568 l 2.39063,-2.3907 c 0.2233,-0.2233 0.43548,-0.453 0.6491,-0.6822 0.35143,-0.3189 0.69787,-0.5846 1.05376,-0.9405 l 3.50238,-3.5024 c 11.60044,-26.058 21.49286,-51.5527 31.42344,-75.2033 z m 27.46668,0 c -0.45084,0.8137 -0.93299,1.5945 -1.38107,2.4114 -0.0851,0.156 -0.17039,0.3147 -0.2555,0.4709 -3.69537,6.7493 -7.29588,13.6918 -10.86486,20.6373 -0.38297,0.7481 -0.77584,1.5371 -1.15871,2.2884 -2.85057,5.5755 -5.696,11.1974 -8.53915,16.8339 l 8.75598,-8.756 c 1.31407,-2.605 2.66907,-5.3769 3.98023,-7.9439 0.0149,-0.029 0.0308,-0.061 0.0456,-0.09 3.66738,-7.1788 7.3423,-14.1924 11.06235,-21.0309 0.11929,-0.2178 0.23553,-0.4411 0.35494,-0.6587 0.7676,-1.4074 1.54809,-2.7712 2.32019,-4.1626 z"
           transform="rotate(45)" />
        <path
           id="rect14312"
           style="fill:#8aadf4;fill-opacity:1;stroke:#8aadf4;stroke-width:5;stroke-linecap:butt;stroke-linejoin:round;stroke-dasharray:none;stroke-opacity:1"
           d="m -820.11128,1256.4155 c 1.25966,0.6404 2.55801,1.1688 3.88494,1.5896 1.73283,-1.6065 3.55641,-3.2067 5.23425,-4.8172 1.20236,-1.1542 2.32615,-2.3205 3.50377,-3.4789 2.72334,-2.6793 5.38082,-5.3633 7.966,-8.0516 h -5.34474 c -1.9715,2.0081 -3.91681,4.0204 -5.95654,6.0173 -0.89131,0.8728 -1.72758,1.7499 -2.63508,2.6213 -2.13645,2.0529 -4.43373,4.0799 -6.6526,6.1195 z m 28.77521,71.4599 4.9773,0.1694 c 1.29036,-1.0345 3.86098,-3.0577 5.13284,-4.0951 1.21676,-0.9922 2.50427,-1.9453 3.70402,-2.9472 0.27959,-0.2335 0.52677,-0.4748 0.80516,-0.7085 4.30414,-3.6143 8.44379,-7.248 12.43652,-10.9035 -2.79823,0.244 -5.55705,0.9567 -8.17454,2.1117 -2.30931,2.0311 -4.54441,4.0787 -6.94401,6.0905 -1.01995,0.8551 -2.11487,1.7009 -3.15298,2.5536 -1.68898,1.3869 -3.44432,2.7366 -5.16243,4.1073 z m 61.58944,-60.9762 c -0.83072,1.0386 -1.70474,2.074 -2.54807,3.1115 -2.32954,2.8656 -4.71128,5.7174 -7.18017,8.5502 -1.2234,1.4041 -2.48446,2.8051 -3.74684,4.2054 -1.33686,1.4825 -2.74217,2.9492 -4.1211,4.4222 -0.53027,2.1066 -0.81649,4.2593 -0.80793,6.4178 0.17748,-0.186 0.35947,-0.3708 0.53724,-0.5566 2.43619,-2.5394 4.8146,-5.0851 7.1194,-7.6387 1.31798,-1.4606 2.63363,-2.9222 3.91395,-4.3918 2.49707,-2.8656 4.89654,-5.7392 7.23818,-8.6192 0.92497,-1.138 1.88725,-2.2668 2.79113,-3.4099 1.03232,-1.3052 1.95869,-2.6187 2.96239,-3.9264 -2.10596,0.3503 -4.17216,0.9611 -6.15818,1.8355 z m 41.11301,-25.2418 c -0.91809,1.6435 -1.78404,3.3027 -2.72899,4.9387 -0.75193,1.3019 -1.54272,2.6033 -2.31881,3.9043 -1.68633,2.8266 -3.42309,5.6385 -5.21215,8.4356 -0.0572,0.089 -0.11681,0.1784 -0.17401,0.2679 0.63529,1.2268 1.39488,2.4032 2.24009,3.5383 0.34896,-0.5429 0.70454,-1.0838 1.05237,-1.6269 1.86472,-2.9124 3.66601,-5.827 5.4055,-8.7449 0.76652,-1.2854 1.54378,-2.5675 2.28981,-3.8587 1.31916,-2.284 2.53287,-4.5703 3.78965,-6.8557 z m -16.84212,27.0814 c -0.84917,1.2206 -1.65917,2.4527 -2.52735,3.6681 -0.62263,0.8716 -1.20424,1.7451 -1.83959,2.6157 -2.84847,3.9036 -5.82103,7.7734 -8.90236,11.6148 -0.91062,1.1353 -1.88446,2.2657 -2.81876,3.3988 -2.27713,2.7613 -4.60364,5.5098 -7.00892,8.2381 -1.22218,1.3866 -2.47697,2.7689 -3.73717,4.1515 -2.35039,2.5778 -4.76778,5.1395 -7.23956,7.687 -0.43784,0.452 -0.88405,0.9032 -1.32168,1.3548 0.11754,0.1176 0.21475,0.2479 0.33284,0.366 0.79139,0.7914 1.63195,1.4989 2.49283,2.1669 0.49228,-0.5081 0.99409,-1.0137 1.48602,-1.5219 2.38331,-2.4617 4.71296,-4.93 6.97302,-7.4067 1.308,-1.4337 2.61167,-2.8686 3.88356,-4.3117 2.4537,-2.7833 4.81595,-5.5757 7.12355,-8.3748 0.91895,-1.1149 1.87568,-2.2205 2.77456,-3.3408 3.155,-3.9312 6.18203,-7.8746 9.0681,-11.8302 0.57827,-0.7927 1.11311,-1.5969 1.68214,-2.392 0.90067,-1.2586 1.76575,-2.5206 2.65579,-3.78 -0.98235,-0.8523 -2.00702,-1.625 -3.07564,-2.305 z m -52.31444,58.8762 5.1123,0.5649 c 0.78091,-0.7402 2.75614,-2.6106 3.5452,-3.3491 2.30216,-2.1544 4.53649,-4.3185 6.74514,-6.4854 -0.42246,-0.4904 -0.84119,-0.9821 -1.30649,-1.4474 -0.44211,-0.4421 -0.91105,-0.8393 -1.37555,-1.243 -2.47911,2.4387 -4.97966,4.8705 -7.57377,7.281 -0.80469,0.748 -1.56086,1.5022 -2.3782,2.2484 -0.68787,0.6277 -2.0722,1.805 -2.76863,2.4306 z m 89.27872,-85.9576 c -0.25904,0.5292 -0.48216,1.0576 -0.74439,1.5869 -2.12436,4.2844 -4.342,8.5606 -6.67885,12.8246 -2.8711,5.2388 -5.9389,10.4116 -9.11643,15.5466 1.21756,0.4539 2.45793,0.8215 3.71784,1.0856 3.0383,-4.8932 5.99736,-9.8118 8.73387,-14.8051 2.9597,-5.4005 5.72051,-10.8169 8.32784,-16.2386 z m -25.46275,43.5934 c -8.03015,11.6623 -16.91967,23.0543 -26.90734,34.1386 1.96864,-0.1006 3.92671,-0.4059 5.83639,-0.9557 0.0212,-0.024 0.0451,-0.048 0.0663,-0.072 0.11837,-0.1352 0.2314,-0.2694 0.34941,-0.4046 7.7011,-8.8158 14.72745,-17.8292 21.22563,-27.0041 0.0235,-1.9128 -0.16931,-3.824 -0.569,-5.7038 z m 43.67628,-43.5934 c -0.28416,0.6201 -0.55001,1.2386 -0.83693,1.8589 -1.21126,2.6138 -2.41561,5.2296 -3.68745,7.8417 -2.31651,4.7635 -4.74454,9.5276 -7.29342,14.2927 -0.91217,1.7043 -1.88384,3.4016 -2.84362,5.1003 2.49972,-1.185 4.852,-2.781 6.95091,-4.813 4.263,-8.0809 8.18824,-16.1847 11.84819,-24.2806 z"
           transform="rotate(45)" />
        <path
           id="rect14314"
           style="fill:#c6a0f6;fill-opacity:1;stroke:#c6a0f6;stroke-width:5;stroke-linecap:butt;stroke-linejoin:round;stroke-dasharray:none;stroke-opacity:1"
           d="m -797.51287,1334.0522 c -1.695,1.695 -3.08031,3.5749 -4.20949,5.5575 1.68579,-1.2168 3.39566,-2.4305 5.04504,-3.653 2.02107,-1.4976 4.05126,-2.9908 6.03112,-4.5119 1.89648,-1.4573 3.69491,-2.928 5.52427,-4.3946 h -5.38892 z m -5.51046,28.508 c 0.49811,1.1625 1.09267,2.2924 1.76915,3.3878 0.53245,-0.3562 1.08956,-0.7077 1.61723,-1.0648 2.21131,-1.496 4.39926,-3.0063 6.56698,-4.5285 2.88657,-2.0276 5.69981,-4.0661 8.47147,-6.1126 1.98211,-1.4632 3.97349,-2.9215 5.91649,-4.4084 3.12533,-2.3921 6.13522,-4.802 9.11229,-7.2175 1.21058,-0.982 2.48649,-1.9234 3.68054,-2.9154 0.27959,-0.2322 0.52954,-0.4732 0.80793,-0.7057 4.28778,-3.5822 8.42261,-7.188 12.40337,-10.8152 0.41021,-0.3738 0.79846,-0.7528 1.19601,-1.1297 h -5.67896 c -3.45097,3.1002 -6.9453,6.1908 -10.60384,9.2421 -1.00074,0.8348 -2.06988,1.6565 -3.08806,2.4887 -3.43346,2.8055 -6.91849,5.5832 -10.48783,8.3085 -1.57169,1.2003 -3.20108,2.391 -4.81164,3.5853 -3.16743,2.348 -6.37754,4.6708 -9.64676,6.9592 -1.78225,1.2477 -3.58635,2.4914 -5.41379,3.7316 -0.59386,0.403 -1.21294,0.7938 -1.81058,1.1946 z m 16.00658,14.5372 c 1.63383,0.5193 3.30504,0.8771 4.99394,1.0634 0.3556,-0.252 0.72282,-0.496 1.07723,-0.7486 1.63026,-1.1632 3.23093,-2.3312 4.82407,-3.501 3.0125,-2.2092 6.00422,-4.4321 8.92999,-6.6981 1.10025,-0.8532 2.15414,-1.7139 3.23584,-2.5702 2.64,-2.0874 5.3316,-4.1413 7.89833,-6.277 6.83003,-5.683 13.17587,-11.4938 19.29904,-17.3655 0.44146,-1.9302 0.68109,-3.8945 0.67396,-5.864 -7.0306,6.8837 -14.42703,13.6703 -22.40506,20.3086 -4.45807,3.7094 -9.04034,7.3383 -13.72368,10.9035 -0.42242,0.3213 -0.85923,0.6404 -1.28439,0.9612 -4.14271,3.1288 -8.37887,6.1965 -12.69339,9.2159 -0.27337,0.1912 -0.55145,0.3808 -0.82588,0.5718 z"
           transform="rotate(45)" />
      </g>
    </g>
  </g>
</svg>
